<mxfile host="app.diagrams.net" modified="2023-05-11T14:44:36.905Z" agent="Mozilla/5.0 (Windows NT 10.0; Win64; x64) AppleWebKit/537.36 (KHTML, like Gecko) Chrome/112.0.0.0 Safari/537.36" etag="vFyQDm8ZvotMN_UtM3VY" version="21.2.9" type="device">
  <diagram name="Page-1" id="3g1JctYbYwHh0X8jzjD5">
    <mxGraphModel dx="1183" dy="578" grid="1" gridSize="10" guides="1" tooltips="1" connect="1" arrows="1" fold="1" page="1" pageScale="1" pageWidth="827" pageHeight="1169" math="0" shadow="0">
      <root>
        <mxCell id="0" />
        <mxCell id="1" parent="0" />
        <mxCell id="I9VsZawf91kos2dSARh_-50" value="" style="ellipse;whiteSpace=wrap;html=1;aspect=fixed;fillColor=#ffe6cc;strokeColor=#d79b00;" vertex="1" parent="1">
          <mxGeometry x="490" y="340" width="40" height="40" as="geometry" />
        </mxCell>
        <mxCell id="zIfRY3cvhkEeDDvGPZCu-1" value="Compressor" style="rounded=0;whiteSpace=wrap;html=1;fillColor=#ffe6cc;strokeColor=#d79b00;" parent="1" vertex="1">
          <mxGeometry x="240" y="280" width="80" height="20" as="geometry" />
        </mxCell>
        <mxCell id="I9VsZawf91kos2dSARh_-9" style="edgeStyle=orthogonalEdgeStyle;rounded=0;orthogonalLoop=1;jettySize=auto;html=1;exitX=1;exitY=0.5;exitDx=0;exitDy=0;entryX=0;entryY=0.5;entryDx=0;entryDy=0;entryPerimeter=0;endArrow=none;endFill=0;" edge="1" parent="1" source="zIfRY3cvhkEeDDvGPZCu-2" target="I9VsZawf91kos2dSARh_-3">
          <mxGeometry relative="1" as="geometry" />
        </mxCell>
        <mxCell id="zIfRY3cvhkEeDDvGPZCu-2" value="" style="ellipse;whiteSpace=wrap;html=1;aspect=fixed;strokeWidth=1;" parent="1" vertex="1">
          <mxGeometry x="180" y="340" width="40" height="40" as="geometry" />
        </mxCell>
        <mxCell id="I9VsZawf91kos2dSARh_-1" value="" style="endArrow=none;html=1;rounded=0;strokeWidth=2;" edge="1" parent="1">
          <mxGeometry width="50" height="50" relative="1" as="geometry">
            <mxPoint x="180" y="380" as="sourcePoint" />
            <mxPoint x="180" y="340" as="targetPoint" />
          </mxGeometry>
        </mxCell>
        <mxCell id="I9VsZawf91kos2dSARh_-7" style="edgeStyle=orthogonalEdgeStyle;rounded=0;orthogonalLoop=1;jettySize=auto;html=1;exitX=1;exitY=0.5;exitDx=0;exitDy=0;entryX=0;entryY=0.5;entryDx=0;entryDy=0;endArrow=none;endFill=0;" edge="1" parent="1" source="I9VsZawf91kos2dSARh_-3" target="I9VsZawf91kos2dSARh_-6">
          <mxGeometry relative="1" as="geometry" />
        </mxCell>
        <mxCell id="I9VsZawf91kos2dSARh_-10" style="edgeStyle=orthogonalEdgeStyle;rounded=0;orthogonalLoop=1;jettySize=auto;html=1;exitX=0.25;exitY=0.13;exitDx=0;exitDy=0;exitPerimeter=0;entryX=0.313;entryY=1.004;entryDx=0;entryDy=0;entryPerimeter=0;endArrow=none;endFill=0;" edge="1" parent="1" source="I9VsZawf91kos2dSARh_-3" target="zIfRY3cvhkEeDDvGPZCu-1">
          <mxGeometry relative="1" as="geometry" />
        </mxCell>
        <mxCell id="I9VsZawf91kos2dSARh_-11" style="edgeStyle=orthogonalEdgeStyle;rounded=0;orthogonalLoop=1;jettySize=auto;html=1;exitX=0.75;exitY=0.38;exitDx=0;exitDy=0;exitPerimeter=0;entryX=0.691;entryY=1.046;entryDx=0;entryDy=0;entryPerimeter=0;endArrow=none;endFill=0;" edge="1" parent="1" source="I9VsZawf91kos2dSARh_-3" target="zIfRY3cvhkEeDDvGPZCu-1">
          <mxGeometry relative="1" as="geometry" />
        </mxCell>
        <mxCell id="I9VsZawf91kos2dSARh_-3" value="&lt;font style=&quot;font-size: 11px;&quot;&gt;Pre-Amp&lt;/font&gt;" style="triangle;whiteSpace=wrap;html=1;points=[[0,0.25,0,0,0],[0,0.5,0,0,0],[0,0.75,0,0,0],[0.25,0.13,0,0,0],[0.5,0.25,0,0,0],[0.5,0.75,0,0,0],[0.75,0.38,0,0,0],[1,0.5,0,0,0]];align=left;fillColor=#ffe6cc;strokeColor=#d79b00;" vertex="1" parent="1">
          <mxGeometry x="250" y="320" width="60" height="80" as="geometry" />
        </mxCell>
        <mxCell id="I9VsZawf91kos2dSARh_-14" style="edgeStyle=orthogonalEdgeStyle;rounded=0;orthogonalLoop=1;jettySize=auto;html=1;exitX=1;exitY=0.5;exitDx=0;exitDy=0;entryX=0;entryY=0.5;entryDx=0;entryDy=0;endArrow=none;endFill=0;" edge="1" parent="1" source="I9VsZawf91kos2dSARh_-5" target="I9VsZawf91kos2dSARh_-12">
          <mxGeometry relative="1" as="geometry" />
        </mxCell>
        <mxCell id="I9VsZawf91kos2dSARh_-20" style="edgeStyle=orthogonalEdgeStyle;rounded=0;orthogonalLoop=1;jettySize=auto;html=1;exitX=1;exitY=0.5;exitDx=0;exitDy=0;entryX=0;entryY=0.5;entryDx=0;entryDy=0;endArrow=none;endFill=0;" edge="1" parent="1" source="I9VsZawf91kos2dSARh_-13" target="I9VsZawf91kos2dSARh_-18">
          <mxGeometry relative="1" as="geometry">
            <Array as="points">
              <mxPoint x="550" y="360" />
              <mxPoint x="550" y="320" />
            </Array>
          </mxGeometry>
        </mxCell>
        <mxCell id="I9VsZawf91kos2dSARh_-5" value="&lt;span style=&quot;font-size: 10px;&quot;&gt;Buffer&lt;/span&gt;" style="triangle;whiteSpace=wrap;html=1;align=left;rounded=0;fillColor=#ffe6cc;strokeColor=#d79b00;" vertex="1" parent="1">
          <mxGeometry x="390" y="320" width="60" height="80" as="geometry" />
        </mxCell>
        <mxCell id="I9VsZawf91kos2dSARh_-8" style="edgeStyle=orthogonalEdgeStyle;rounded=0;orthogonalLoop=1;jettySize=auto;html=1;exitX=1;exitY=0.5;exitDx=0;exitDy=0;endArrow=none;endFill=0;" edge="1" parent="1" source="I9VsZawf91kos2dSARh_-6" target="I9VsZawf91kos2dSARh_-5">
          <mxGeometry relative="1" as="geometry" />
        </mxCell>
        <mxCell id="I9VsZawf91kos2dSARh_-52" style="edgeStyle=orthogonalEdgeStyle;rounded=0;orthogonalLoop=1;jettySize=auto;html=1;exitX=0.5;exitY=1;exitDx=0;exitDy=0;entryX=0.083;entryY=-0.044;entryDx=0;entryDy=0;entryPerimeter=0;endArrow=none;endFill=0;" edge="1" parent="1" source="I9VsZawf91kos2dSARh_-6" target="I9VsZawf91kos2dSARh_-51">
          <mxGeometry relative="1" as="geometry" />
        </mxCell>
        <mxCell id="I9VsZawf91kos2dSARh_-6" value="&lt;font style=&quot;font-size: 11px;&quot;&gt;Mute&lt;/font&gt;" style="rounded=0;whiteSpace=wrap;html=1;fillColor=#d5e8d4;strokeColor=#82b366;" vertex="1" parent="1">
          <mxGeometry x="330" y="350" width="40" height="20" as="geometry" />
        </mxCell>
        <mxCell id="I9VsZawf91kos2dSARh_-12" value="" style="ellipse;whiteSpace=wrap;html=1;aspect=fixed;fillColor=#ffe6cc;strokeColor=#d79b00;" vertex="1" parent="1">
          <mxGeometry x="470" y="340" width="40" height="40" as="geometry" />
        </mxCell>
        <mxCell id="I9VsZawf91kos2dSARh_-16" style="edgeStyle=orthogonalEdgeStyle;rounded=0;orthogonalLoop=1;jettySize=auto;html=1;exitX=1;exitY=0.5;exitDx=0;exitDy=0;entryX=0;entryY=0.75;entryDx=0;entryDy=0;endArrow=none;endFill=0;" edge="1" parent="1" source="I9VsZawf91kos2dSARh_-13" target="I9VsZawf91kos2dSARh_-17">
          <mxGeometry relative="1" as="geometry">
            <mxPoint x="550" y="360" as="targetPoint" />
          </mxGeometry>
        </mxCell>
        <mxCell id="I9VsZawf91kos2dSARh_-38" style="edgeStyle=orthogonalEdgeStyle;rounded=0;orthogonalLoop=1;jettySize=auto;html=1;exitX=1;exitY=0.5;exitDx=0;exitDy=0;endArrow=oval;endFill=0;" edge="1" parent="1" source="I9VsZawf91kos2dSARh_-13">
          <mxGeometry relative="1" as="geometry">
            <mxPoint x="550" y="260" as="targetPoint" />
            <Array as="points">
              <mxPoint x="550" y="360" />
            </Array>
          </mxGeometry>
        </mxCell>
        <mxCell id="I9VsZawf91kos2dSARh_-40" value="Line" style="edgeLabel;html=1;align=center;verticalAlign=middle;resizable=0;points=[];" vertex="1" connectable="0" parent="I9VsZawf91kos2dSARh_-38">
          <mxGeometry x="0.8273" y="3" relative="1" as="geometry">
            <mxPoint x="3" y="-30" as="offset" />
          </mxGeometry>
        </mxCell>
        <mxCell id="I9VsZawf91kos2dSARh_-13" value="" style="ellipse;whiteSpace=wrap;html=1;aspect=fixed;fillColor=none;strokeColor=#d79b00;" vertex="1" parent="1">
          <mxGeometry x="490" y="340" width="40" height="40" as="geometry" />
        </mxCell>
        <mxCell id="I9VsZawf91kos2dSARh_-19" style="edgeStyle=orthogonalEdgeStyle;rounded=0;orthogonalLoop=1;jettySize=auto;html=1;exitX=0;exitY=0.25;exitDx=0;exitDy=0;entryX=1;entryY=0.5;entryDx=0;entryDy=0;endArrow=none;endFill=0;" edge="1" parent="1" source="I9VsZawf91kos2dSARh_-17" target="I9VsZawf91kos2dSARh_-18">
          <mxGeometry relative="1" as="geometry" />
        </mxCell>
        <mxCell id="I9VsZawf91kos2dSARh_-22" style="edgeStyle=orthogonalEdgeStyle;rounded=0;orthogonalLoop=1;jettySize=auto;html=1;exitX=1;exitY=0.5;exitDx=0;exitDy=0;entryX=0;entryY=0.5;entryDx=0;entryDy=0;endArrow=none;endFill=0;" edge="1" parent="1" source="I9VsZawf91kos2dSARh_-17" target="I9VsZawf91kos2dSARh_-21">
          <mxGeometry relative="1" as="geometry" />
        </mxCell>
        <mxCell id="I9VsZawf91kos2dSARh_-17" value="&lt;span style=&quot;font-size: 10px;&quot;&gt;Buffer&lt;/span&gt;" style="triangle;whiteSpace=wrap;html=1;align=left;rounded=0;fillColor=#ffe6cc;strokeColor=#d79b00;" vertex="1" parent="1">
          <mxGeometry x="650" y="300" width="60" height="80" as="geometry" />
        </mxCell>
        <mxCell id="I9VsZawf91kos2dSARh_-18" value="&lt;font style=&quot;font-size: 11px;&quot;&gt;Sidetone&lt;br&gt;Adjustment&lt;br&gt;&lt;/font&gt;" style="rounded=0;whiteSpace=wrap;html=1;fillColor=#fff2cc;strokeColor=#d6b656;" vertex="1" parent="1">
          <mxGeometry x="570" y="305" width="60" height="30" as="geometry" />
        </mxCell>
        <mxCell id="I9VsZawf91kos2dSARh_-24" style="edgeStyle=orthogonalEdgeStyle;rounded=0;orthogonalLoop=1;jettySize=auto;html=1;exitX=1;exitY=0.5;exitDx=0;exitDy=0;entryX=0;entryY=0.5;entryDx=0;entryDy=0;endArrow=none;endFill=0;" edge="1" parent="1" source="I9VsZawf91kos2dSARh_-21" target="I9VsZawf91kos2dSARh_-23">
          <mxGeometry relative="1" as="geometry" />
        </mxCell>
        <mxCell id="I9VsZawf91kos2dSARh_-21" value="&lt;font style=&quot;font-size: 11px;&quot;&gt;Volume&lt;/font&gt;" style="rounded=0;whiteSpace=wrap;html=1;fillColor=#fff2cc;strokeColor=#d6b656;" vertex="1" parent="1">
          <mxGeometry x="730" y="330" width="60" height="20" as="geometry" />
        </mxCell>
        <mxCell id="I9VsZawf91kos2dSARh_-33" style="edgeStyle=orthogonalEdgeStyle;rounded=0;orthogonalLoop=1;jettySize=auto;html=1;exitX=1;exitY=0.5;exitDx=0;exitDy=0;entryX=0;entryY=0.5;entryDx=0;entryDy=0;endArrow=none;endFill=0;" edge="1" parent="1" source="I9VsZawf91kos2dSARh_-23" target="I9VsZawf91kos2dSARh_-25">
          <mxGeometry relative="1" as="geometry">
            <Array as="points">
              <mxPoint x="880" y="340" />
              <mxPoint x="880" y="305" />
            </Array>
          </mxGeometry>
        </mxCell>
        <mxCell id="I9VsZawf91kos2dSARh_-34" style="edgeStyle=orthogonalEdgeStyle;rounded=0;orthogonalLoop=1;jettySize=auto;html=1;exitX=1;exitY=0.5;exitDx=0;exitDy=0;entryX=0;entryY=0.5;entryDx=0;entryDy=0;endArrow=none;endFill=0;" edge="1" parent="1" source="I9VsZawf91kos2dSARh_-23" target="I9VsZawf91kos2dSARh_-29">
          <mxGeometry relative="1" as="geometry">
            <Array as="points">
              <mxPoint x="880" y="340" />
              <mxPoint x="880" y="375" />
            </Array>
          </mxGeometry>
        </mxCell>
        <mxCell id="I9VsZawf91kos2dSARh_-23" value="&lt;span style=&quot;font-size: 10px;&quot;&gt;Buffer&lt;/span&gt;" style="triangle;whiteSpace=wrap;html=1;align=left;rounded=0;fillColor=#ffe6cc;strokeColor=#d79b00;" vertex="1" parent="1">
          <mxGeometry x="800" y="300" width="60" height="80" as="geometry" />
        </mxCell>
        <mxCell id="I9VsZawf91kos2dSARh_-35" value="" style="group" vertex="1" connectable="0" parent="1">
          <mxGeometry x="890" y="280" width="20" height="50" as="geometry" />
        </mxCell>
        <mxCell id="I9VsZawf91kos2dSARh_-25" value="" style="rounded=0;whiteSpace=wrap;html=1;" vertex="1" parent="I9VsZawf91kos2dSARh_-35">
          <mxGeometry y="10" width="10" height="30" as="geometry" />
        </mxCell>
        <mxCell id="I9VsZawf91kos2dSARh_-26" value="" style="endArrow=none;html=1;rounded=0;exitX=1;exitY=0;exitDx=0;exitDy=0;" edge="1" parent="I9VsZawf91kos2dSARh_-35" source="I9VsZawf91kos2dSARh_-25">
          <mxGeometry width="50" height="50" relative="1" as="geometry">
            <mxPoint y="80" as="sourcePoint" />
            <mxPoint x="20" as="targetPoint" />
          </mxGeometry>
        </mxCell>
        <mxCell id="I9VsZawf91kos2dSARh_-27" value="" style="endArrow=none;html=1;rounded=0;exitX=1;exitY=1;exitDx=0;exitDy=0;" edge="1" parent="I9VsZawf91kos2dSARh_-35" source="I9VsZawf91kos2dSARh_-25">
          <mxGeometry width="50" height="50" relative="1" as="geometry">
            <mxPoint y="80" as="sourcePoint" />
            <mxPoint x="20" y="50" as="targetPoint" />
          </mxGeometry>
        </mxCell>
        <mxCell id="I9VsZawf91kos2dSARh_-28" value="" style="endArrow=none;html=1;rounded=0;" edge="1" parent="I9VsZawf91kos2dSARh_-35">
          <mxGeometry width="50" height="50" relative="1" as="geometry">
            <mxPoint x="20" y="50" as="sourcePoint" />
            <mxPoint x="20" as="targetPoint" />
          </mxGeometry>
        </mxCell>
        <mxCell id="I9VsZawf91kos2dSARh_-36" value="" style="group" vertex="1" connectable="0" parent="1">
          <mxGeometry x="890" y="350" width="20" height="50" as="geometry" />
        </mxCell>
        <mxCell id="I9VsZawf91kos2dSARh_-29" value="" style="rounded=0;whiteSpace=wrap;html=1;" vertex="1" parent="I9VsZawf91kos2dSARh_-36">
          <mxGeometry y="10" width="10" height="30" as="geometry" />
        </mxCell>
        <mxCell id="I9VsZawf91kos2dSARh_-30" value="" style="endArrow=none;html=1;rounded=0;exitX=1;exitY=0;exitDx=0;exitDy=0;" edge="1" parent="I9VsZawf91kos2dSARh_-36" source="I9VsZawf91kos2dSARh_-29">
          <mxGeometry width="50" height="50" relative="1" as="geometry">
            <mxPoint y="80" as="sourcePoint" />
            <mxPoint x="20" as="targetPoint" />
          </mxGeometry>
        </mxCell>
        <mxCell id="I9VsZawf91kos2dSARh_-31" value="" style="endArrow=none;html=1;rounded=0;exitX=1;exitY=1;exitDx=0;exitDy=0;" edge="1" parent="I9VsZawf91kos2dSARh_-36" source="I9VsZawf91kos2dSARh_-29">
          <mxGeometry width="50" height="50" relative="1" as="geometry">
            <mxPoint y="80" as="sourcePoint" />
            <mxPoint x="20" y="50" as="targetPoint" />
          </mxGeometry>
        </mxCell>
        <mxCell id="I9VsZawf91kos2dSARh_-32" value="" style="endArrow=none;html=1;rounded=0;" edge="1" parent="I9VsZawf91kos2dSARh_-36">
          <mxGeometry width="50" height="50" relative="1" as="geometry">
            <mxPoint x="20" y="50" as="sourcePoint" />
            <mxPoint x="20" as="targetPoint" />
          </mxGeometry>
        </mxCell>
        <mxCell id="I9VsZawf91kos2dSARh_-39" value="" style="ellipse;whiteSpace=wrap;html=1;aspect=fixed;fillColor=#030303;" vertex="1" parent="1">
          <mxGeometry x="545" y="355" width="10" height="10" as="geometry" />
        </mxCell>
        <mxCell id="I9VsZawf91kos2dSARh_-42" value="" style="ellipse;whiteSpace=wrap;html=1;aspect=fixed;fillColor=#030303;" vertex="1" parent="1">
          <mxGeometry x="545" y="315" width="10" height="10" as="geometry" />
        </mxCell>
        <mxCell id="I9VsZawf91kos2dSARh_-45" style="edgeStyle=orthogonalEdgeStyle;rounded=0;orthogonalLoop=1;jettySize=auto;html=1;exitX=1;exitY=0.5;exitDx=0;exitDy=0;entryX=1;entryY=0.5;entryDx=0;entryDy=0;endArrow=none;endFill=0;" edge="1" parent="1" source="I9VsZawf91kos2dSARh_-43" target="I9VsZawf91kos2dSARh_-13">
          <mxGeometry relative="1" as="geometry" />
        </mxCell>
        <mxCell id="I9VsZawf91kos2dSARh_-53" style="edgeStyle=orthogonalEdgeStyle;rounded=0;orthogonalLoop=1;jettySize=auto;html=1;exitX=0.5;exitY=1;exitDx=0;exitDy=0;entryX=0.444;entryY=0.051;entryDx=0;entryDy=0;entryPerimeter=0;endArrow=none;endFill=0;" edge="1" parent="1" source="I9VsZawf91kos2dSARh_-43" target="I9VsZawf91kos2dSARh_-51">
          <mxGeometry relative="1" as="geometry" />
        </mxCell>
        <mxCell id="I9VsZawf91kos2dSARh_-43" value="&lt;font style=&quot;font-size: 11px;&quot;&gt;Call&lt;br&gt;send&lt;/font&gt;" style="rounded=0;whiteSpace=wrap;html=1;fillColor=#d5e8d4;strokeColor=#82b366;" vertex="1" parent="1">
          <mxGeometry x="450" y="420" width="60" height="40" as="geometry" />
        </mxCell>
        <mxCell id="I9VsZawf91kos2dSARh_-46" style="edgeStyle=orthogonalEdgeStyle;rounded=0;orthogonalLoop=1;jettySize=auto;html=1;exitX=0;exitY=0.5;exitDx=0;exitDy=0;entryX=1;entryY=0.5;entryDx=0;entryDy=0;endArrow=none;endFill=0;" edge="1" parent="1" source="I9VsZawf91kos2dSARh_-44" target="I9VsZawf91kos2dSARh_-13">
          <mxGeometry relative="1" as="geometry">
            <Array as="points">
              <mxPoint x="550" y="440" />
              <mxPoint x="550" y="360" />
            </Array>
          </mxGeometry>
        </mxCell>
        <mxCell id="I9VsZawf91kos2dSARh_-54" style="edgeStyle=orthogonalEdgeStyle;rounded=0;orthogonalLoop=1;jettySize=auto;html=1;exitX=0.5;exitY=1;exitDx=0;exitDy=0;entryX=0.834;entryY=0.027;entryDx=0;entryDy=0;entryPerimeter=0;endArrow=none;endFill=0;" edge="1" parent="1" source="I9VsZawf91kos2dSARh_-44" target="I9VsZawf91kos2dSARh_-51">
          <mxGeometry relative="1" as="geometry" />
        </mxCell>
        <mxCell id="I9VsZawf91kos2dSARh_-44" value="&lt;font style=&quot;font-size: 11px;&quot;&gt;Call&lt;br&gt;Receive&lt;/font&gt;" style="rounded=0;whiteSpace=wrap;html=1;fillColor=#d5e8d4;strokeColor=#82b366;" vertex="1" parent="1">
          <mxGeometry x="590" y="420" width="60" height="40" as="geometry" />
        </mxCell>
        <mxCell id="I9VsZawf91kos2dSARh_-47" value="" style="ellipse;whiteSpace=wrap;html=1;aspect=fixed;fillColor=#030303;" vertex="1" parent="1">
          <mxGeometry x="545" y="435" width="10" height="10" as="geometry" />
        </mxCell>
        <mxCell id="I9VsZawf91kos2dSARh_-49" value="Current source" style="text;html=1;strokeColor=none;fillColor=none;align=center;verticalAlign=middle;whiteSpace=wrap;rounded=0;" vertex="1" parent="1">
          <mxGeometry x="470" y="310" width="60" height="30" as="geometry" />
        </mxCell>
        <mxCell id="I9VsZawf91kos2dSARh_-51" value="Microcontroller" style="rounded=0;whiteSpace=wrap;html=1;fillColor=#dae8fc;strokeColor=#6c8ebf;" vertex="1" parent="1">
          <mxGeometry x="320" y="500" width="360" height="40" as="geometry" />
        </mxCell>
        <mxCell id="I9VsZawf91kos2dSARh_-59" style="edgeStyle=orthogonalEdgeStyle;rounded=0;orthogonalLoop=1;jettySize=auto;html=1;exitX=1;exitY=0.5;exitDx=0;exitDy=0;entryX=0;entryY=0.25;entryDx=0;entryDy=0;endArrow=none;endFill=0;" edge="1" parent="1" source="I9VsZawf91kos2dSARh_-55" target="I9VsZawf91kos2dSARh_-51">
          <mxGeometry relative="1" as="geometry" />
        </mxCell>
        <mxCell id="I9VsZawf91kos2dSARh_-60" value="" style="group" vertex="1" connectable="0" parent="1">
          <mxGeometry x="180" y="470" width="40" height="12.5" as="geometry" />
        </mxCell>
        <mxCell id="I9VsZawf91kos2dSARh_-55" value="" style="ellipse;whiteSpace=wrap;html=1;aspect=fixed;fillColor=#030303;" vertex="1" parent="I9VsZawf91kos2dSARh_-60">
          <mxGeometry x="35" y="7.5" width="5" height="5" as="geometry" />
        </mxCell>
        <mxCell id="I9VsZawf91kos2dSARh_-56" value="" style="ellipse;whiteSpace=wrap;html=1;aspect=fixed;fillColor=#030303;" vertex="1" parent="I9VsZawf91kos2dSARh_-60">
          <mxGeometry y="7.5" width="5" height="5" as="geometry" />
        </mxCell>
        <mxCell id="I9VsZawf91kos2dSARh_-58" value="" style="endArrow=none;html=1;rounded=0;exitX=0;exitY=0;exitDx=0;exitDy=0;" edge="1" parent="I9VsZawf91kos2dSARh_-60" source="I9VsZawf91kos2dSARh_-56">
          <mxGeometry width="50" height="50" relative="1" as="geometry">
            <mxPoint x="20" y="20" as="sourcePoint" />
            <mxPoint x="40" as="targetPoint" />
          </mxGeometry>
        </mxCell>
        <mxCell id="I9VsZawf91kos2dSARh_-65" value="Call button" style="edgeLabel;html=1;align=center;verticalAlign=middle;resizable=0;points=[];" vertex="1" connectable="0" parent="I9VsZawf91kos2dSARh_-58">
          <mxGeometry x="-0.1256" relative="1" as="geometry">
            <mxPoint x="2" y="15" as="offset" />
          </mxGeometry>
        </mxCell>
        <mxCell id="I9VsZawf91kos2dSARh_-61" value="" style="group" vertex="1" connectable="0" parent="1">
          <mxGeometry x="180" y="520" width="40" height="12.5" as="geometry" />
        </mxCell>
        <mxCell id="I9VsZawf91kos2dSARh_-62" value="" style="ellipse;whiteSpace=wrap;html=1;aspect=fixed;fillColor=#030303;" vertex="1" parent="I9VsZawf91kos2dSARh_-61">
          <mxGeometry x="35" y="7.5" width="5" height="5" as="geometry" />
        </mxCell>
        <mxCell id="I9VsZawf91kos2dSARh_-63" value="" style="ellipse;whiteSpace=wrap;html=1;aspect=fixed;fillColor=#030303;" vertex="1" parent="I9VsZawf91kos2dSARh_-61">
          <mxGeometry y="7.5" width="5" height="5" as="geometry" />
        </mxCell>
        <mxCell id="I9VsZawf91kos2dSARh_-64" value="" style="endArrow=none;html=1;rounded=0;exitX=0;exitY=0;exitDx=0;exitDy=0;" edge="1" parent="I9VsZawf91kos2dSARh_-61" source="I9VsZawf91kos2dSARh_-63">
          <mxGeometry width="50" height="50" relative="1" as="geometry">
            <mxPoint x="20" y="20" as="sourcePoint" />
            <mxPoint x="40" as="targetPoint" />
          </mxGeometry>
        </mxCell>
        <mxCell id="I9VsZawf91kos2dSARh_-66" value="Talk button" style="edgeLabel;html=1;align=center;verticalAlign=middle;resizable=0;points=[];" vertex="1" connectable="0" parent="I9VsZawf91kos2dSARh_-64">
          <mxGeometry x="-0.0702" relative="1" as="geometry">
            <mxPoint x="1" y="16" as="offset" />
          </mxGeometry>
        </mxCell>
        <mxCell id="I9VsZawf91kos2dSARh_-67" style="edgeStyle=orthogonalEdgeStyle;rounded=0;orthogonalLoop=1;jettySize=auto;html=1;exitX=1;exitY=0.5;exitDx=0;exitDy=0;entryX=0;entryY=0.75;entryDx=0;entryDy=0;endArrow=none;endFill=0;" edge="1" parent="1" source="I9VsZawf91kos2dSARh_-62" target="I9VsZawf91kos2dSARh_-51">
          <mxGeometry relative="1" as="geometry" />
        </mxCell>
        <mxCell id="I9VsZawf91kos2dSARh_-69" value="" style="group" vertex="1" connectable="0" parent="1">
          <mxGeometry x="890" y="445" width="20" height="30" as="geometry" />
        </mxCell>
        <mxCell id="I9VsZawf91kos2dSARh_-70" value="" style="rounded=0;whiteSpace=wrap;html=1;" vertex="1" parent="I9VsZawf91kos2dSARh_-69">
          <mxGeometry y="6" width="10" height="18" as="geometry" />
        </mxCell>
        <mxCell id="I9VsZawf91kos2dSARh_-71" value="" style="endArrow=none;html=1;rounded=0;exitX=1;exitY=0;exitDx=0;exitDy=0;" edge="1" parent="I9VsZawf91kos2dSARh_-69" source="I9VsZawf91kos2dSARh_-70">
          <mxGeometry width="50" height="50" relative="1" as="geometry">
            <mxPoint y="48" as="sourcePoint" />
            <mxPoint x="20" as="targetPoint" />
          </mxGeometry>
        </mxCell>
        <mxCell id="I9VsZawf91kos2dSARh_-72" value="" style="endArrow=none;html=1;rounded=0;exitX=1;exitY=1;exitDx=0;exitDy=0;" edge="1" parent="I9VsZawf91kos2dSARh_-69" source="I9VsZawf91kos2dSARh_-70">
          <mxGeometry width="50" height="50" relative="1" as="geometry">
            <mxPoint y="48" as="sourcePoint" />
            <mxPoint x="20" y="30" as="targetPoint" />
          </mxGeometry>
        </mxCell>
        <mxCell id="I9VsZawf91kos2dSARh_-73" value="" style="endArrow=none;html=1;rounded=0;" edge="1" parent="I9VsZawf91kos2dSARh_-69">
          <mxGeometry width="50" height="50" relative="1" as="geometry">
            <mxPoint x="20" y="30" as="sourcePoint" />
            <mxPoint x="20" as="targetPoint" />
          </mxGeometry>
        </mxCell>
        <mxCell id="I9VsZawf91kos2dSARh_-76" value="Buzzer" style="edgeLabel;html=1;align=center;verticalAlign=middle;resizable=0;points=[];" vertex="1" connectable="0" parent="I9VsZawf91kos2dSARh_-73">
          <mxGeometry x="0.237" relative="1" as="geometry">
            <mxPoint x="50" y="4" as="offset" />
          </mxGeometry>
        </mxCell>
        <mxCell id="I9VsZawf91kos2dSARh_-81" style="edgeStyle=orthogonalEdgeStyle;rounded=0;orthogonalLoop=1;jettySize=auto;html=1;exitX=0;exitY=0.5;exitDx=0;exitDy=0;endArrow=none;endFill=0;" edge="1" parent="1" source="I9VsZawf91kos2dSARh_-77" target="I9VsZawf91kos2dSARh_-51">
          <mxGeometry relative="1" as="geometry">
            <Array as="points">
              <mxPoint x="800" y="500" />
              <mxPoint x="800" y="520" />
            </Array>
          </mxGeometry>
        </mxCell>
        <mxCell id="I9VsZawf91kos2dSARh_-77" value="M" style="ellipse;whiteSpace=wrap;html=1;aspect=fixed;" vertex="1" parent="1">
          <mxGeometry x="890" y="490" width="20" height="20" as="geometry" />
        </mxCell>
        <mxCell id="I9VsZawf91kos2dSARh_-79" value="Vibration motor" style="text;html=1;strokeColor=none;fillColor=none;align=center;verticalAlign=middle;whiteSpace=wrap;rounded=0;" vertex="1" parent="1">
          <mxGeometry x="935" y="490" width="50" height="20" as="geometry" />
        </mxCell>
        <mxCell id="I9VsZawf91kos2dSARh_-80" style="edgeStyle=orthogonalEdgeStyle;rounded=0;orthogonalLoop=1;jettySize=auto;html=1;exitX=0;exitY=0.5;exitDx=0;exitDy=0;entryX=1;entryY=0.25;entryDx=0;entryDy=0;endArrow=none;endFill=0;" edge="1" parent="1" source="I9VsZawf91kos2dSARh_-70" target="I9VsZawf91kos2dSARh_-51">
          <mxGeometry relative="1" as="geometry" />
        </mxCell>
        <mxCell id="I9VsZawf91kos2dSARh_-84" style="edgeStyle=orthogonalEdgeStyle;rounded=0;orthogonalLoop=1;jettySize=auto;html=1;exitX=1;exitY=0.5;exitDx=0;exitDy=0;endArrow=none;endFill=0;" edge="1" parent="1" source="I9VsZawf91kos2dSARh_-82">
          <mxGeometry relative="1" as="geometry">
            <mxPoint x="920" y="545" as="targetPoint" />
          </mxGeometry>
        </mxCell>
        <mxCell id="I9VsZawf91kos2dSARh_-85" style="edgeStyle=orthogonalEdgeStyle;rounded=0;orthogonalLoop=1;jettySize=auto;html=1;exitX=0;exitY=0.5;exitDx=0;exitDy=0;entryX=1;entryY=0.75;entryDx=0;entryDy=0;endArrow=none;endFill=0;" edge="1" parent="1" source="I9VsZawf91kos2dSARh_-82" target="I9VsZawf91kos2dSARh_-51">
          <mxGeometry relative="1" as="geometry" />
        </mxCell>
        <mxCell id="I9VsZawf91kos2dSARh_-82" value="" style="triangle;whiteSpace=wrap;html=1;" vertex="1" parent="1">
          <mxGeometry x="890" y="530" width="20" height="30" as="geometry" />
        </mxCell>
        <mxCell id="I9VsZawf91kos2dSARh_-83" value="" style="endArrow=none;html=1;rounded=0;" edge="1" parent="1">
          <mxGeometry width="50" height="50" relative="1" as="geometry">
            <mxPoint x="910" y="560" as="sourcePoint" />
            <mxPoint x="910" y="530" as="targetPoint" />
          </mxGeometry>
        </mxCell>
        <mxCell id="I9VsZawf91kos2dSARh_-87" value="Addressable LEDs" style="text;html=1;strokeColor=none;fillColor=none;align=center;verticalAlign=middle;whiteSpace=wrap;rounded=0;" vertex="1" parent="1">
          <mxGeometry x="920" y="527.5" width="80" height="35" as="geometry" />
        </mxCell>
        <mxCell id="I9VsZawf91kos2dSARh_-88" value="Headset speakers" style="text;html=1;strokeColor=none;fillColor=none;align=center;verticalAlign=middle;whiteSpace=wrap;rounded=0;" vertex="1" parent="1">
          <mxGeometry x="930" y="330" width="50" height="20" as="geometry" />
        </mxCell>
        <mxCell id="I9VsZawf91kos2dSARh_-89" value="Headset electret microphone" style="text;html=1;strokeColor=none;fillColor=none;align=center;verticalAlign=middle;whiteSpace=wrap;rounded=0;" vertex="1" parent="1">
          <mxGeometry x="110" y="350" width="50" height="20" as="geometry" />
        </mxCell>
      </root>
    </mxGraphModel>
  </diagram>
</mxfile>
